<?xml version="1.0" encoding="UTF-8" standalone="no"?>
<svg
   xmlns:dc="http://purl.org/dc/elements/1.1/"
   xmlns:cc="http://creativecommons.org/ns#"
   xmlns:rdf="http://www.w3.org/1999/02/22-rdf-syntax-ns#"
   xmlns:svg="http://www.w3.org/2000/svg"
   xmlns="http://www.w3.org/2000/svg"
   xmlns:sodipodi="http://sodipodi.sourceforge.net/DTD/sodipodi-0.dtd"
   xmlns:inkscape="http://www.inkscape.org/namespaces/inkscape"
   width="210mm"
   height="297mm"
   viewBox="0 0 210 297"
   version="1.1"
   id="svg8"
   inkscape:version="1.0.1 (3bc2e813f5, 2020-09-07)"
   sodipodi:docname="drawing.svg">
  <defs
     id="defs2" />
  <sodipodi:namedview
     id="base"
     pagecolor="#ffffff"
     bordercolor="#666666"
     borderopacity="1.0"
     inkscape:pageopacity="0.0"
     inkscape:pageshadow="2"
     inkscape:zoom="0.35"
     inkscape:cx="400"
     inkscape:cy="560"
     inkscape:document-units="mm"
     inkscape:current-layer="layer1"
     inkscape:document-rotation="0"
     showgrid="false"
     inkscape:window-width="1267"
     inkscape:window-height="728"
     inkscape:window-x="52"
     inkscape:window-y="0"
     inkscape:window-maximized="0" />
  <metadata
     id="metadata5">
    <rdf:RDF>
      <cc:Work
         rdf:about="">
        <dc:format>image/svg+xml</dc:format>
        <dc:type
           rdf:resource="http://purl.org/dc/dcmitype/StillImage" />
        <dc:title></dc:title>
      </cc:Work>
    </rdf:RDF>
  </metadata>
  <g
     inkscape:label="Layer 1"
     inkscape:groupmode="layer"
     id="layer1">
    <path
       style="fill:#000000;fill-opacity:1;fill-rule:nonzero;stroke:none;stroke-width:0.264583"
       id="path14"
       d="m 26.958308,19.14074 c -1.467193,1.278498 -2.859161,2.612113 -4.19333,4.035391 -1.390249,1.803143 -2.641039,3.72703 -3.755504,5.713585 -0.700281,1.068083 -0.750003,2.387132 -1.249319,3.528753 -0.91141,2.083819 0.211709,-1.057029 -0.653363,1.499354 -0.692462,2.057197 -1.159489,4.150982 -1.405327,6.305886 -0.269615,2.297634 -1.025678,4.497367 -1.374738,6.793453 -0.338234,2.848715 -0.317009,5.723773 -0.319208,8.587771 -0.02459,3.149301 -0.01365,6.298462 -0.01621,9.447705 9.26e-4,2.612575 -0.01546,5.225097 -0.0396,7.837556 -0.05448,2.09179 0.562739,4.15816 1.165981,6.145903 0.905412,2.40838 1.908272,4.77765 2.875791,7.16207 1.005904,2.674847 2.897838,4.823343 4.701878,6.988328 2.106581,2.432373 4.1788,4.897858 6.205585,7.397385 1.728489,2.2368 3.967943,3.85258 6.435895,5.17037 3.791817,1.82993 7.662664,3.48982 11.616732,4.9356 5.337421,2.08255 10.890871,3.5152 16.441398,4.89767 6.773524,1.58657 13.581753,2.93686 20.487704,3.78444 6.791248,0.95456 13.606978,1.69457 20.447607,2.17729 4.59741,0.24235 8.99649,-0.87747 13.23106,-2.55438 5.46439,-2.41659 10.51932,-5.74882 15.62004,-8.793 2.1102,-1.25939 4.14033,-2.65476 6.1306,-4.09266 3.62812,-2.9957 6.9186,-6.372902 9.9462,-9.967526 1.90467,-2.402527 3.97971,-4.6951 5.75091,-7.202402 0.66201,-0.937144 2.09681,-3.258455 2.69009,-4.205447 2.635,-4.069228 4.81118,-8.421523 6.30513,-13.032657 1.42202,-4.668102 1.58716,-9.580116 1.77353,-14.420805 0.35189,-4.357029 -0.39623,-8.621289 -1.6,-12.788334 -0.96182,-3.580167 -2.3768,-7.0344 -4.20186,-10.258591 -1.42376,-2.297946 -2.86962,-4.55744 -4.88003,-6.383309 -2.17473,-1.886154 -4.91655,-2.922892 -7.62704,-3.77683 -2.28233,-0.643095 -4.6404,-0.831856 -6.99931,-0.879388 -3.53602,-0.04546 -6.80896,1.115341 -9.94338,2.637893 -4.79186,2.935995 -10.66353,5.317248 -14.83652,9.425526 -1.82296,1.794695 -3.25699,3.832556 -4.64623,5.963915 -3.33784,5.197826 -4.84101,11.201513 -6.28343,17.1314 -1.67146,7.081993 -3.20502,14.201915 -4.2631,21.40309 -0.699524,6.292781 -1.105792,12.612081 -1.386883,18.935954 -0.255505,6.385331 -0.254868,12.776781 -0.299233,19.165981 -0.101626,6.17306 0.07592,12.34668 -0.04123,18.51857 -0.189222,7.39303 -0.588412,14.77678 -0.893448,22.16522 -0.346913,7.1373 -0.287546,14.28623 -0.857451,21.41092 -0.398618,5.76264 -1.472475,11.44736 -2.395236,17.14192 -0.557704,4.99355 -1.759444,9.87545 -2.694672,14.80311 -1.282436,5.53017 -2.448764,11.07539 -3.523962,16.65023 -0.938144,4.99235 -2.969162,9.65106 -4.747845,14.37625 -1.306867,3.41034 -3.199836,6.55381 -5.19907,9.59603 -1.579306,2.21771 -3.775541,3.79684 -6.107676,5.14064 16.004159,-9.15915 8.001177,-4.50739 4.164118,-2.92112 -1.191482,0.49257 -1.822431,0.68163 -3.058948,1.09908 -2.998795,0.92001 -6.034349,1.68644 -9.141029,2.1251 -2.36728,0.30118 -4.755851,0.33328 -7.138588,0.34311 -2.041218,0.006 -4.073842,0.0682 -6.098344,-0.21971 -3.243995,-0.7555 -6.006221,-2.47816 -8.623855,-4.46588 -4.181846,-3.23791 -6.402912,-7.66909 -8.605592,-12.3328 -2.024356,-4.06108 -2.775772,-8.46875 -3.154203,-12.93978 -0.467112,-4.02196 0.517366,-7.87554 1.877978,-11.62103 1.16823,-3.10738 2.859132,-5.97921 4.783897,-8.6719 1.823757,-2.17354 4.201445,-3.73038 6.667293,-5.07969 -16.121004,9.28705 -8.270351,4.26345 -4.036774,3.22189 0.990319,-0.21415 2.003689,-0.25038 3.006413,-0.37315 0,0 8.85095,-6.83952 8.85095,-6.83952 v 0 c -0.990711,0.52863 -1.873152,0.29364 -2.963871,0.47509 -5.581375,0.90797 -10.396349,5.11556 -15.165411,7.47475 -2.436519,1.49401 -4.803664,3.16127 -6.472679,5.52953 -1.835224,2.78512 -3.443549,5.71721 -4.537692,8.87988 -1.311983,3.90247 -2.18356,7.89239 -1.665216,12.03559 0.45221,4.5714 1.322038,9.08358 3.475589,13.19607 2.244325,4.73384 4.571655,9.46671 8.728976,12.84633 2.674779,2.14002 5.44725,4.0044 8.762534,5.00978 2.04492,0.44917 4.088395,0.47846 6.177553,0.4166 2.431976,-0.0204 4.868042,-0.0555 7.29103,-0.28281 3.167444,-0.39325 6.250488,-1.11045 9.314209,-2.00587 6.440784,-1.9998 12.09131,-5.25972 17.862725,-8.88883 2.29108,-1.51061 4.409543,-3.20246 5.86909,-5.57749 1.925947,-3.10306 3.754469,-6.2887 4.978511,-9.74468 1.79619,-4.73674 3.583853,-9.49572 4.55344,-14.48624 1.089744,-5.57329 2.219922,-11.13352 3.543332,-16.65714 1.00034,-4.92832 2.17476,-9.82618 2.68221,-14.84113 0.8815,-5.70212 1.91673,-11.3924 2.23926,-17.16364 0.48686,-7.11518 0.36208,-14.24843 0.71074,-21.37101 0.36789,-7.40318 0.77906,-14.80318 0.94289,-22.21493 0.18483,-6.19675 0.18166,-12.39421 0.13852,-18.59322 -0.004,-6.37131 0.0424,-12.74402 0.29096,-19.111225 0.29447,-6.292387 0.75113,-12.58057 1.43426,-18.842797 1.02352,-7.162067 2.43289,-14.266359 4.25087,-21.270764 1.58318,-5.860777 3.12546,-11.812746 6.62282,-16.882242 1.4584,-2.064242 2.93662,-4.012321 4.81943,-5.718937 2.80957,-2.546649 10.89142,-7.09119 -3.69777,1.450475 2.93978,-1.613535 6.06742,-2.867723 9.46744,-2.960444 2.29903,0.04372 4.61123,0.09787 6.86309,0.619125 2.61061,0.695362 5.2269,1.615927 7.30889,3.400002 1.96913,1.699826 3.43245,3.809751 4.82393,5.996037 1.79823,3.135527 3.13714,6.536185 4.11462,10.013387 1.18545,4.048992 1.81245,8.199196 1.52844,12.431715 -0.18535,4.768902 -0.43932,9.586457 -1.94594,14.156557 -1.60472,4.494419 -3.68853,8.797856 -6.35189,12.769276 -2.57544,3.965903 -5.4416,7.715173 -8.544,11.286655 -3.0648,3.51219 -6.34014,6.86789 -10.03968,9.71936 -0.64917,0.45202 -1.28977,0.91662 -1.94753,1.35606 -0.69323,0.46315 -1.40239,0.90201 -2.10471,1.35126 -4.34752,2.78096 -2.92933,1.77896 5.06397,-2.69375 0.70577,-0.39492 -1.39065,0.82777 -2.10789,1.20148 -0.68087,0.35477 -1.38884,0.65488 -2.08327,0.98231 -4.11162,1.83566 -8.50534,3.02709 -13.03739,3.02777 -6.88161,-0.3512 -13.744021,-0.97051 -20.557198,-2.02351 -6.859035,-0.79298 -13.594453,-2.14577 -20.309618,-3.74418 -5.488175,-1.38936 -11.003396,-2.77323 -16.27162,-4.87503 -3.877956,-1.43659 -7.648364,-3.12065 -11.369771,-4.92265 -2.342546,-1.235975 -4.478027,-2.748765 -6.172734,-4.81574 -2.035688,-2.497021 -4.195466,-4.893135 -6.235994,-7.387016 -1.71119,-2.104236 -3.504059,-4.170986 -4.484179,-6.73944 -0.996492,-2.336175 -1.931831,-4.691441 -2.769544,-7.088939 -0.559067,-1.905158 -1.095037,-3.855296 -1.022127,-5.857803 -0.02605,-2.597341 -0.04566,-5.194734 -0.05178,-7.792196 -0.01087,-3.140813 -0.01756,-6.281827 -0.0074,-9.422656 0.05009,-2.831677 0.07104,-5.677681 0.496017,-8.483952 0.41568,-2.28759 1.154058,-4.510061 1.363202,-6.83079 0.309815,-2.084941 0.812023,-4.120997 1.568576,-6.092854 0.693756,-1.60346 1.065892,-3.323845 1.935943,-4.849604 1.148265,-1.918396 2.348804,-3.834501 3.874426,-5.479134 1.37541,-1.419928 2.876193,-2.690502 4.306088,-4.053052 0,0 -10.371889,4.296176 -10.371889,4.296176 z" />
    <path
       style="fill:#000000;fill-opacity:1;fill-rule:nonzero;stroke:none;stroke-width:0.264583"
       id="path16"
       d="m 30.120473,148.43435 c 3.636449,-0.0839 7.274729,-0.0965 10.912091,-0.11311 5.970355,-0.0174 11.940638,-0.0522 17.911006,-0.0695 6.66587,-0.0168 13.331867,-0.005 19.997645,0.034 5.710438,0.0319 11.420935,-0.008 17.131421,-0.002 5.034324,0.008 10.068494,0.0456 15.102834,0.0394 5.08211,-0.0275 10.1643,-0.006 15.24647,-0.0127 4.80132,-0.0281 9.60261,-0.009 14.40364,0.0474 3.60072,-5.3e-4 7.20128,-0.005 10.80199,0.009 2.59936,0.0142 5.19867,0.0357 7.79807,0.0317 3.00642,-0.13772 5.86536,-1.05944 8.69651,-1.99916 4.65113,-1.69202 8.66822,-4.51575 12.92301,-7.12065 0.97158,-0.59482 1.58998,-1.78436 2.08213,-2.75194 0.77085,-2.42394 0.91574,-4.98582 1.00996,-7.51105 0.13917,-2.39339 -0.4571,-4.6633 -1.20411,-6.90661 -0.68472,-2.01821 -1.92962,-3.5997 -3.63113,-4.84214 -1.71079,-1.07919 -3.66443,-1.67753 -5.61756,-2.14414 -1.04046,-0.27409 -2.0668,-0.23611 -3.12416,-0.1518 0,0 -8.89109,6.6566 -8.89109,6.6566 v 0 c 0.9679,-0.20949 1.88597,-0.39119 2.87488,-0.15218 1.85948,0.34514 3.69379,0.87952 5.37067,1.76976 1.56799,1.05334 2.70326,2.39218 3.29998,4.21891 0.71914,2.12488 1.19964,4.29455 1.01162,6.55758 -0.0785,2.37314 -0.16645,4.83582 -1.24603,7.00055 -0.5632,0.78646 -0.61039,0.94984 -1.35362,1.59122 -0.28736,0.24799 -1.24301,0.86671 -0.91015,0.6843 15.89299,-8.70958 9.65466,-5.26046 6.10026,-3.66235 -2.75278,0.96177 -5.51332,1.93292 -8.43059,2.25287 -2.62853,-0.004 -5.25697,0.0178 -7.88545,0.0317 -3.60862,0.0132 -7.21709,0.009 -10.82573,0.009 -4.84451,0.0549 -9.68927,0.076 -14.53406,0.0474 -5.07056,-0.007 -10.14113,0.0149 -15.21162,-0.0126 -5.07052,-0.006 -10.14088,0.0317 -15.21139,0.0394 -5.708372,0.006 -11.416754,-0.0342 -17.125082,-0.002 -6.696987,0.0387 -13.394189,0.051 -20.091272,0.034 -5.906601,-0.0172 -11.813112,-0.0521 -17.719699,-0.0695 -3.533555,-0.0163 -7.068169,-0.0275 -10.600729,-0.11311 0,0 -9.060715,6.58299 -9.060715,6.58299 z" />
    <path
       style="fill:#000000;fill-opacity:1;fill-rule:nonzero;stroke:none;stroke-width:0.264583"
       id="path18"
       d="m 62.626427,182.45221 c 4.382635,-0.16007 8.770236,-0.1192 13.155049,-0.10593 3.421348,-0.009 6.842157,0.0605 10.263449,0.0538 3.107783,-0.002 6.21552,-0.004 9.323268,-0.019 4.097568,-0.0476 8.195257,-0.0199 12.292897,-0.012 3.46734,0.0313 6.93446,0.0159 10.4018,-0.002 3.80119,0.0184 7.59546,0.0664 11.37706,-0.36064 2.6382,-0.29073 5.20469,-0.98317 7.81183,-1.45278 2.23471,-0.39897 4.38811,-1.14871 6.53533,-1.86827 5.45889,-2.08641 10.74039,-4.89112 15.35417,-8.48225 1.52407,-0.98864 2.84422,-2.27556 3.74538,-3.85462 0.68209,-1.51574 0.90327,-3.17467 0.72549,-4.816 -0.15318,-2.13977 -1.10766,-3.94926 -2.39195,-5.61239 -1.37407,-1.59589 -3.1456,-2.55801 -5.14336,-3.12006 -0.80152,-0.20105 -1.62352,-0.26709 -2.4439,-0.33266 0,0 -9.07,6.51256 -9.07,6.51256 v 0 c 0.7828,0.0245 1.56729,0.0454 2.34313,0.16467 1.83627,0.3417 3.50062,1.02779 4.75994,2.47024 1.18342,1.4988 2.00422,3.0807 2.04,5.04149 0.008,1.46647 -0.21808,2.92169 -1.0413,4.17054 -1.0639,1.38617 -2.40366,2.49716 -3.85215,3.46772 -3.60728,2.45799 -0.97339,0.63075 7.76413,-4.35252 0.30728,-0.17526 -0.6022,0.37211 -0.91347,0.54016 -0.93705,0.50588 -1.05288,0.4982 -2.04473,0.9204 -0.36613,0.15585 -0.72857,0.32023 -1.09285,0.48035 -2.10204,0.74224 -4.22447,1.45585 -6.3905,1.9842 -2.65856,0.42961 -5.23838,1.22208 -7.90819,1.58111 -3.7601,0.54731 -7.54103,0.59046 -11.33611,0.50487 -3.46599,-0.0176 -6.93177,-0.0325 -10.39778,-0.002 -4.08667,0.008 -8.17339,0.036 -12.25998,-0.012 -3.09026,-0.0148 -6.180506,-0.0173 -9.270797,-0.019 -3.470701,-0.007 -6.940942,0.0631 -10.411695,0.0538 -4.287515,0.0129 -8.578345,0.0589 -12.863447,-0.10593 0,0 -9.060714,6.58299 -9.060714,6.58299 z" />
  </g>
</svg>
