<svg id="svg" version="1.1" xmlns="http://www.w3.org/2000/svg" xmlns:xlink="http://www.w3.org/1999/xlink" width="400" 
height="218.42105263157896" viewBox="0, 0, 400,218.42105263157896">

<g id="svgg">
<path id="path0" d="M182.237 1.355 
C 138.654 5.161,90.909 26.350,48.026 60.917 C 33.140 72.917,1.316 105.927,1.316 109.368 C 1.316 111.179,8.658 119.457,22.697
 133.478 C 126.188 236.827,243.163 245.367,351.974 157.517 C 366.972 145.408,398.684 112.488,398.684 109.028 C 398.684 
 107.184,391.470 99.045,377.303 84.907 C 316.094 23.822,249.856 -4.550,182.237 1.355 M134.020 43.092 C 96.677 81.854,96.649 
 136.570,133.954 175.268 C 140.091 181.634,144.747 186.842,144.301 186.842 C 138.449 186.842,104.454 169.799,86.519 157.873
  C 63.677 142.686,30.263 113.730,30.263 109.125 C 30.263 104.699,65.334 74.341,86.842 60.148 C 103.945 48.862,138.070 31.810,143.938 
  31.617 C 144.584 31.596,140.121 36.760,134.020 43.092 M266.037 35.451 C 299.785 48.446,364.753 94.266,369.172 108.188 C 371.495 
  115.508,318.944 157.565,288.147 173.032 C 277.396 178.431,257.654 186.842,255.731 186.842 C 255.303 186.842,260.203 181.333,266.621
   174.601 C 286.509 153.736,292.784 137.858,292.720 108.553 C 292.657 79.286,286.459 64.348,265.285 42.434 C 259.516 36.464,255.063
    31.579,255.389 31.579 C 255.715 31.579,260.506 33.321,266.037 35.451 M211.842 38.189 C 250.342 44.163,278.450 84.486,270.523 122.368 
    C 258.569 179.489,190.124 200.798,149.496 160.047 C 100.404 110.804,143.020 27.510,211.842 38.189 M190.724 71.465 C 155.244 81.411,150.871
     128.147,183.908 144.311 C 208.114 156.153,238.074 137.724,238.548 110.700 C 238.997 85.088,214.327 64.849,190.724 71.465 " 
     stroke="none" fill="#e19f9f" fill-rule="evenodd"></path>
     </g></svg>