<svg id="svg" xmlns="http://www.w3.org/2000/svg" xmlns:xlink="http://www.w3.org/1999/xlink" width="400" height="414.76190476190476" viewBox="0, 0, 400,414.76190476190476"><g id="svgg"><path id="path0" d="M182.381 19.493 C 165.417 24.672,165.361 60.220,182.211 126.905 C 183.667 132.667,185.199 138.741,185.615 140.403 L 186.372 143.425 189.495 143.022 C 193.523 142.503,204.576 142.503,208.609 143.023 L 211.741 143.427 212.789 136.781 C 222.969 72.228,217.620 31.865,197.583 22.034 C 192.668 19.623,185.745 18.466,182.381 19.493 M99.389 36.370 C 78.482 44.164,98.593 89.902,149.742 150.885 C 152.896 154.645,155.729 158.041,156.038 158.430 C 156.517 159.033,157.024 158.785,159.474 156.746 C 163.435 153.450,165.717 151.930,170.789 149.210 L 175.149 146.872 171.938 138.317 C 146.265 69.902,117.577 29.589,99.389 36.370 M258.666 37.647 C 244.969 44.491,230.276 80.323,219.790 132.459 C 217.179 145.439,217.201 144.965,219.167 145.705 C 226.358 148.414,232.810 152.023,237.934 156.200 L 240.867 158.593 243.605 153.489 C 273.767 97.257,285.601 53.682,274.220 40.753 C 270.090 36.060,264.196 34.883,258.666 37.647 M331.302 58.119 C 315.378 63.599,296.555 85.344,255.478 145.714 C 252.894 149.512,249.298 154.724,247.487 157.296 L 244.194 161.973 246.058 164.201 C 247.084 165.426,248.827 167.769,249.933 169.407 L 251.943 172.385 253.472 171.599 C 295.545 149.950,337.115 116.808,348.520 95.822 C 359.828 75.014,349.286 51.932,331.302 58.119 M47.784 93.347 C 38.050 95.098,29.859 102.448,29.170 110.050 C 27.730 125.926,58.738 147.287,120.000 172.621 C 129.611 176.595,140.811 180.952,141.417 180.952 C 141.627 180.952,142.693 179.070,143.786 176.770 C 144.880 174.470,147.233 170.559,149.017 168.080 L 152.260 163.571 151.252 162.144 C 149.509 159.677,123.369 133.737,117.294 128.446 C 87.418 102.424,63.752 90.474,47.784 93.347 M346.607 138.537 C 326.250 142.066,297.112 152.843,265.000 168.720 C 258.714 171.828,253.518 174.422,253.453 174.486 C 253.388 174.550,254.202 176.599,255.261 179.041 C 257.534 184.282,258.975 189.270,259.736 194.524 L 260.287 198.333 261.929 198.185 C 270.310 197.430,298.069 192.138,312.619 188.523 C 360.312 176.672,382.513 161.974,376.799 146.032 C 374.181 138.727,362.393 135.801,346.607 138.537 M33.472 169.313 C 22.015 170.984,15.264 174.867,12.919 181.134 C 6.811 197.459,30.708 207.703,81.458 210.512 C 91.918 211.091,134.434 210.878,136.488 210.236 C 137.452 209.935,137.511 209.548,137.754 201.984 C 137.940 196.168,138.277 192.976,139.017 190.036 C 140.240 185.169,140.916 185.781,131.429 183.167 C 108.602 176.879,92.578 173.434,72.381 170.475 C 59.474 168.584,42.044 168.063,33.472 169.313 M272.857 201.041 C 259.378 201.586,260.477 201.224,260.473 205.128 C 260.470 208.751,259.423 216.081,258.348 220.000 C 257.401 223.457,257.409 223.517,258.929 224.124 C 259.649 224.413,264.524 226.365,269.762 228.464 C 331.976 253.390,374.940 256.003,386.869 235.587 C 402.509 208.819,364.597 197.331,272.857 201.041 M117.619 219.567 C 50.307 222.610,13.306 236.600,9.904 260.293 C 5.751 289.209,40.637 286.776,113.095 253.098 C 116.741 251.404,146.258 236.758,146.485 236.531 C 146.545 236.471,145.469 234.173,144.093 231.425 C 142.717 228.677,141.076 224.768,140.448 222.738 L 139.305 219.048 132.629 219.119 C 128.957 219.158,122.202 219.360,117.619 219.567 M252.890 233.505 C 250.641 237.593,247.378 242.094,244.198 245.493 L 241.492 248.387 242.770 249.799 C 251.014 258.903,254.873 262.967,262.401 270.476 C 304.450 312.417,336.409 327.520,354.668 314.080 C 372.077 301.263,361.171 284.098,321.429 261.765 C 306.637 253.453,271.614 237.088,255.529 230.972 C 254.620 230.627,254.310 230.924,252.890 233.505 M145.952 241.282 C 73.863 285.316,38.858 322.660,53.762 339.635 C 66.822 354.510,107.707 324.115,156.473 263.277 C 164.402 253.387,163.947 254.474,161.071 252.278 C 158.693 250.463,152.004 243.701,149.992 241.078 L 148.810 239.537 145.952 241.282 M235.491 253.309 C 234.994 254.113,227.039 258.715,223.348 260.334 C 221.376 261.199,219.788 262.067,219.819 262.263 C 220.287 265.170,230.027 291.791,234.714 302.969 C 257.919 358.320,279.825 385.822,296.251 380.225 C 315.807 373.562,300.413 334.060,255.403 275.400 C 242.490 258.571,236.409 251.825,235.491 253.309 M160.480 262.514 C 109.115 332.128,95.985 378.093,123.095 393.388 C 143.528 404.916,163.590 361.581,178.565 273.571 C 179.367 268.857,180.135 264.443,180.272 263.762 C 180.503 262.612,180.309 262.449,177.522 261.452 C 175.873 260.861,172.511 259.329,170.051 258.046 C 164.731 255.273,166.397 254.495,160.480 262.514 M206.667 264.858 C 205.226 265.111,200.597 265.216,196.381 265.091 L 188.714 264.865 187.905 269.067 C 173.252 345.226,180.003 389.557,207.087 395.021 C 218.290 397.281,224.459 391.876,227.222 377.381 C 228.066 372.950,228.069 351.542,227.225 344.762 C 224.394 322.003,217.355 286.826,211.933 268.333 C 211.703 267.548,211.384 266.315,211.224 265.595 C 210.906 264.159,210.768 264.136,206.667 264.858 " stroke="none" fill="#000000" fill-rule="evenodd"></path></g></svg>