<svg id="svg" version="1.1" xmlns="http://www.w3.org/2000/svg" xmlns:xlink="http://www.w3.org/1999/xlink" width="400" height="400" viewBox="0, 0, 400,400"><g id="svgg"><path id="path0" d="M197.833 1.830 C 194.865 2.871,195.196 2.123,182.583 36.306 C 170.042 70.296,170.260 69.575,171.673 72.346 C 172.044 73.072,172.970 74.079,173.732 74.583 L 175.118 75.500 199.607 75.590 L 224.097 75.679 225.586 74.958 C 227.682 73.944,229.000 71.807,229.000 69.424 C 229.000 66.336,206.152 4.949,204.380 3.277 C 202.434 1.441,200.293 0.968,197.833 1.830 M61.833 58.109 C 59.074 59.371,57.431 62.036,57.742 64.746 C 57.924 66.335,85.169 125.715,86.591 127.623 C 88.441 130.105,92.609 130.722,95.233 128.902 C 97.625 127.243,128.934 95.573,129.484 94.255 C 130.536 91.739,129.885 88.570,127.949 86.774 C 127.519 86.375,113.442 79.726,96.667 71.998 C 64.444 57.152,64.167 57.042,61.833 58.109 M332.333 58.624 C 323.751 62.343,272.675 86.193,272.051 86.773 C 270.117 88.570,269.464 91.739,270.511 94.245 C 271.093 95.637,304.451 128.887,305.950 129.568 C 308.120 130.555,311.509 129.800,313.226 127.949 C 315.085 125.945,342.111 66.276,342.139 64.112 C 342.207 59.021,337.499 56.385,332.333 58.624 M193.167 94.869 C 106.091 101.720,63.699 203.090,120.417 268.833 C 173.390 330.236,273.649 310.573,299.726 233.667 C 323.615 163.214,266.702 89.084,193.167 94.869 M36.000 182.678 C 5.971 193.778,4.443 194.383,3.273 195.624 C 0.708 198.343,0.836 202.151,3.580 204.758 C 5.053 206.157,67.134 229.000,69.465 229.000 C 71.634 229.000,73.700 227.797,74.824 225.879 L 75.667 224.441 75.667 200.159 C 75.667 172.365,75.831 173.935,72.720 171.962 C 69.769 170.090,71.104 169.701,36.000 182.678 M327.280 171.962 C 324.171 173.934,324.333 172.387,324.333 200.000 C 324.333 227.371,324.201 226.021,327.071 227.920 C 330.121 229.938,328.453 230.417,363.807 217.364 C 388.070 208.406,395.677 205.467,396.432 204.758 C 399.295 202.071,399.288 197.922,396.415 195.226 C 395.636 194.494,388.382 191.694,363.815 182.642 C 328.789 169.737,330.158 170.137,327.280 171.962 M88.667 270.650 C 86.585 271.756,86.225 272.460,71.955 303.333 C 58.220 333.051,57.858 333.886,57.852 335.897 C 57.840 339.618,60.910 342.550,64.500 342.244 C 66.284 342.093,125.320 315.139,127.586 313.442 C 130.201 311.484,130.773 307.466,128.836 304.671 C 127.563 302.834,95.582 271.331,94.231 270.583 C 92.846 269.817,90.174 269.848,88.667 270.650 M305.833 270.480 C 304.482 271.095,270.789 304.920,270.349 306.105 C 269.488 308.420,270.237 311.538,272.062 313.240 C 273.548 314.626,333.616 342.086,335.500 342.240 C 339.148 342.539,342.191 339.625,342.137 335.887 C 342.105 333.723,315.079 274.049,313.226 272.051 C 311.470 270.158,308.112 269.445,305.833 270.480 M174.389 325.049 C 172.410 326.028,171.241 327.872,171.072 330.280 C 170.864 333.247,193.622 394.844,195.622 396.727 C 198.348 399.294,202.150 399.164,204.763 396.414 C 206.188 394.916,229.000 333.010,229.000 330.644 C 229.000 328.064,227.824 326.101,225.597 324.965 C 223.541 323.915,176.523 323.992,174.389 325.049 " stroke="none" fill="#fcc414" fill-rule="evenodd"></path><path id="path1" d="" stroke="none" fill="#100c414" fill-rule="evenodd"></path><path id="path2" d="" stroke="none" fill="#100c414" fill-rule="evenodd"></path><path id="path3" d="" stroke="none" fill="#100c414" fill-rule="evenodd"></path><path id="path4" d="" stroke="none" fill="#100c414" fill-rule="evenodd"></path></g></svg>